<svg xmlns="http://www.w3.org/2000/svg" xmlns:xlink="http://www.w3.org/1999/xlink" version="1.1" x="0px" y="0px" viewBox="0 0 100 125" enable-background="new 0 0 100 100" xml:space="preserve"><g><path d="M28,35.5c-0.5,0.7-0.9,1.7-0.9,2.6v22.5c0,1,0.3,1.8,0.8,2.6l10.7-17.9L28,35.5z"/><path d="M54.2,51.6c-1.2,1.1-2.8,1.7-4.4,1.7c-1.6,0-3.2-0.6-4.4-1.7l-5.5-5.2L29.1,64.3c0.7,0.5,1.6,0.8,2.5,0.8h36.3   c1,0,1.9-0.3,2.6-0.9L59.7,46.4L54.2,51.6z"/><path d="M50,5C25.1,5,5,25.1,5,50s20.1,45,45,45c24.9,0,45-20.1,45-45S74.9,5,50,5z M74,60.6c0,3.3-2.7,6.1-6.1,6.1H31.6   c-3.3,0-6.1-2.7-6.1-6.1V38.1c0-3.3,2.7-6.1,6.1-6.1h36.3c3.3,0,6.1,2.7,6.1,6.1V60.6z"/><path d="M60.9,45.3l10.7,17.8c0.5-0.7,0.7-1.5,0.7-2.4V38.1c0-1-0.3-1.9-0.9-2.6L60.9,45.3z"/><path d="M53.1,50.4l17.3-16c-0.7-0.5-1.6-0.7-2.5-0.7H31.6c-0.9,0-1.8,0.3-2.5,0.7l17.3,16C48.3,52.1,51.3,52.1,53.1,50.4z"/></g></svg>